# xmcd
# Track frame offsets:
# 150
# 20456
# 36187
# 50877
# 67781
# 89614
# 102145
# 119341
# 129683
# 140229
# 160583
# 176573
#
# Disc length: 2576 seconds
# Revision: 0
# Processed by: cddbd v1.4PL0 Copyright (c) Steve Scherf et al.
# Submitted via: VisiTrax 2.9.5.181 - For more info visit www.synapsa.com
#
DISCID=a70a0e0c
DTITLE=Jill Johnson, Heidi Hauge, Ann Tayler, Ester Brohus,Marianne Flynne
DTITLE=r - Scandinavian Girls
DYEAR=2002
DGENRE=
TTITLE0=Marianne Flynner - Country Girls
TTITLE1=Jill Johnson - Secrets in my life
TTITLE2=Ann Tayler - Come On
TTITLE3=Heidi Hauge - Blanket on the ground
TTITLE4=Ester Brohus - Happy to belonely
TTITLE5=Marianne Flynner - Wreckage of a love affair
TTITLE6=Jill Johnson - Astroturf
TTITLE7=Ann Tayler - Hello goodbye
TTITLE8=Heidi Hauge - I`m gonna be a country girl again
TTITLE9=Ester Brohus - When it falls again
TTITLE10=Marianne Flynner - Bye bye
TTITLE11=Jill Johnson - Just like you
EXTD=
EXTT0=
EXTT1=
EXTT2=
EXTT3=
EXTT4=
EXTT5=
EXTT6=
EXTT7=
EXTT8=
EXTT9=
EXTT10=
EXTT11=
PLAYORDER=
